<?xml version="1.0" encoding="UTF-8" standalone="no"?>
<!-- Created with Inkscape (http://www.inkscape.org/) -->

<svg
   width="1000mm"
   height="1000mm"
   viewBox="0 0 1000 1000"
   version="1.1"
   id="svg1"
   inkscape:version="1.4.3 (0d15f75, 2025-12-25)"
   sodipodi:docname="excellent.svg"
   xmlns:inkscape="http://www.inkscape.org/namespaces/inkscape"
   xmlns:sodipodi="http://sodipodi.sourceforge.net/DTD/sodipodi-0.dtd"
   xmlns="http://www.w3.org/2000/svg"
   xmlns:svg="http://www.w3.org/2000/svg">
  <sodipodi:namedview
     id="namedview1"
     pagecolor="#505050"
     bordercolor="#eeeeee"
     borderopacity="1"
     inkscape:showpageshadow="0"
     inkscape:pageopacity="0"
     inkscape:pagecheckerboard="0"
     inkscape:deskcolor="#505050"
     inkscape:document-units="mm"
     inkscape:antialias-rendering="false"
     inkscape:zoom="0.17840488"
     inkscape:cx="1869.3435"
     inkscape:cy="1942.2114"
     inkscape:window-width="1512"
     inkscape:window-height="870"
     inkscape:window-x="0"
     inkscape:window-y="33"
     inkscape:window-maximized="1"
     inkscape:current-layer="layer1" />
  <defs
     id="defs1" />
  <g
     inkscape:label="Layer 1"
     inkscape:groupmode="layer"
     id="layer1">
    <circle
       style="fill:#22ac38;fill-opacity:1;stroke-width:4.72599"
       id="path1"
       cx="500"
       cy="500"
       r="500" />
    <path
       d="m 613.45773,447.79535 q 19.47747,0 29.78907,32.08054 20.05034,60.72388 28.64334,60.72388 6.8744,0 13.7488,-10.3116 140.35237,-225.70952 260.6544,-364.91615 30.9348,-36.09061 98.53306,-36.09061 16.0403,0 21.1961,2.86434 5.7287,2.86433 5.7287,7.44726 0,7.44727 -16.6132,27.49761 -193.62895,232.58392 -358.61459,491.51971 -11.45733,18.33174 -46.97508,18.33174 -36.0906,0 -42.96501,-3.4372 -17.186,-7.44727 -40.10067,-76.76415 -25.77901,-76.76415 -25.77901,-96.24162 0,-20.62321 34.94488,-40.10068 21.19607,-12.60307 37.80921,-12.60307 z"
       id="text2"
       style="font-weight:bold;font-size:1173.23px;font-family:Menlo;-inkscape-font-specification:'Menlo Bold';letter-spacing:0px;fill:#ffffff;stroke-width:3.8102"
       transform="scale(0.80622352,1.2403508)"
       aria-label="✓" />
    <path
       d="m 241.35225,447.79573 q 19.47746,0 29.78905,32.08051 20.05032,60.72382 28.64331,60.72382 6.8744,0 13.74879,-10.31159 140.35224,-225.70931 260.65415,-364.91581 30.93478,-36.09057 98.533,-36.09057 16.04025,0 21.19605,2.86433 5.72866,2.86433 5.72866,7.44726 0,7.44726 -16.61312,27.49758 -193.6288,232.5837 -358.61428,491.51925 -11.45732,18.33172 -46.97503,18.33172 -36.09058,0 -42.96497,-3.43719 -17.18599,-7.44726 -40.10064,-76.76408 -25.77898,-76.76408 -25.77898,-96.24153 0,-20.62319 34.94484,-40.10064 21.19605,-12.60306 37.80917,-12.60306 z"
       id="text3"
       style="font-weight:bold;font-size:1173.23px;font-family:Menlo;-inkscape-font-specification:'Menlo Bold';letter-spacing:0px;fill:#ffffff;stroke-width:3.81021"
       transform="scale(0.80622431,1.2403496)"
       aria-label="✓" />
  </g>
</svg>
