<?xml version="1.0" encoding="UTF-8" standalone="no"?>
<!-- Created with Inkscape (http://www.inkscape.org/) -->

<svg
   width="1000mm"
   height="1000mm"
   viewBox="0 0 1000 1000"
   version="1.1"
   id="svg1"
   inkscape:version="1.4.3 (0d15f75, 2025-12-25)"
   sodipodi:docname="okay.svg"
   xmlns:inkscape="http://www.inkscape.org/namespaces/inkscape"
   xmlns:sodipodi="http://sodipodi.sourceforge.net/DTD/sodipodi-0.dtd"
   xmlns="http://www.w3.org/2000/svg"
   xmlns:svg="http://www.w3.org/2000/svg">
  <sodipodi:namedview
     id="namedview1"
     pagecolor="#505050"
     bordercolor="#eeeeee"
     borderopacity="1"
     inkscape:showpageshadow="0"
     inkscape:pageopacity="0"
     inkscape:pagecheckerboard="0"
     inkscape:deskcolor="#505050"
     inkscape:document-units="mm"
     inkscape:antialias-rendering="false"
     inkscape:zoom="0.17840488"
     inkscape:cx="2071.1317"
     inkscape:cy="1729.2128"
     inkscape:window-width="1512"
     inkscape:window-height="870"
     inkscape:window-x="0"
     inkscape:window-y="33"
     inkscape:window-maximized="1"
     inkscape:current-layer="layer1" />
  <defs
     id="defs1" />
  <g
     inkscape:label="Layer 1"
     inkscape:groupmode="layer"
     id="layer1">
    <circle
       style="fill:#74b038;fill-opacity:1;stroke-width:4.72599"
       id="path1"
       cx="500"
       cy="500"
       r="500" />
    <path
       d="m 260.89982,555.42301 q 24.15876,0 36.94869,39.7909 24.86931,75.31848 35.52759,75.31848 8.52662,0 17.05324,-12.78993 174.08517,-279.95738 323.30104,-452.62146 38.36979,-44.76475 122.2149,-44.76475 19.89545,0 26.29041,3.55275 7.10552,3.55276 7.10552,9.23718 0,9.23717 -20.606,34.10648 -240.16649,288.48401 -444.80539,609.65339 -14.21103,22.73766 -58.26524,22.73766 -44.76476,0 -53.29138,-4.26331 -21.31655,-9.23718 -49.73862,-95.21394 -31.97483,-95.21393 -31.97483,-119.37269 0,-25.57986 43.34365,-49.73862 26.29042,-15.63214 46.89642,-15.63214 z"
       id="text2"
       style="font-weight:bold;font-size:1455.21px;font-family:Menlo;-inkscape-font-specification:'Menlo Bold';letter-spacing:0px;fill:#ffffff;stroke-width:4.72599"
       aria-label="✓" />
  </g>
</svg>
